<svg width="23" height="103" viewBox="0 0 23 103" fill="none" xmlns="http://www.w3.org/2000/svg">
<path d="M2 1C2 0.447715 1.55228 0 1 0C0.447716 0 0 0.447715 0 1H2ZM1 95H0V96H1V95ZM22.7071 95.7071C23.0976 95.3166 23.0976 94.6834 22.7071 94.2929L16.3431 87.9289C15.9526 87.5384 15.3195 87.5384 14.9289 87.9289C14.5384 88.3195 14.5384 88.9526 14.9289 89.3431L20.5858 95L14.9289 100.657C14.5384 101.047 14.5384 101.681 14.9289 102.071C15.3195 102.462 15.9526 102.462 16.3431 102.071L22.7071 95.7071ZM0 1L0 95H2L2 1H0ZM1 96H22V94H1V96Z" fill="#DFCCFF"/>
</svg>
