<svg width="29" height="37" viewBox="0 0 29 37" fill="none" xmlns="http://www.w3.org/2000/svg">
<path d="M2 1C2 0.447715 1.55228 0 1 0C0.447716 0 0 0.447715 0 1L2 1ZM1 29H0V30H1V29ZM28.7071 29.7071C29.0976 29.3166 29.0976 28.6834 28.7071 28.2929L22.3431 21.9289C21.9526 21.5384 21.3195 21.5384 20.9289 21.9289C20.5384 22.3195 20.5384 22.9526 20.9289 23.3431L26.5858 29L20.9289 34.6569C20.5384 35.0474 20.5384 35.6805 20.9289 36.0711C21.3195 36.4616 21.9526 36.4616 22.3431 36.0711L28.7071 29.7071ZM0 1V29H2V1L0 1ZM1 30H28V28H1V30Z" fill="#DFCCFF"/>
</svg>
